<svg xmlns="http://www.w3.org/2000/svg" width="500" height="500" version="1.0" viewBox="0 0 375 374.999991">
  <defs>
    <clipPath id="a">
      <path d="M5 4h365v353H5Zm0 0" />
    </clipPath>
    <clipPath id="b">
      <path d="m58.695312-41.601562 346.394532 204-164.035156 278.535156L-105.339844 236.9375Zm0 0" />
    </clipPath>
    <clipPath id="c">
      <path d="m58.695312-41.601562 346.394532 204-164.035156 278.535156L-105.339844 236.9375Zm0 0" />
    </clipPath>
    <clipPath id="d">
      <path d="M166 216h113v115H166Zm0 0" />
    </clipPath>
    <clipPath id="e">
      <path d="m202.582031 189.308594 103.003907 113.132812-80.410157 73.214844-103.007812-113.132812Zm0 0" />
    </clipPath>
    <clipPath id="f">
      <path d="m202.582031 189.308594 103.003907 113.132812-80.410157 73.214844-103.007812-113.132812Zm0 0" />
    </clipPath>
    <clipPath id="g">
      <path d="M157 282h61v61h-61Zm0 0" />
    </clipPath>
    <clipPath id="h">
      <path d="m174.40625 268.5 57.277344 57.277344-40.304688 40.304687-57.277344-57.277343Zm0 0" />
    </clipPath>
    <clipPath id="i">
      <path d="m174.40625 268.5 57.277344 57.277344-40.304688 40.304687-57.277344-57.277343Zm0 0" />
    </clipPath>
  </defs>
  <g clip-path="url(#a)">
    <g clip-path="url(#b)">
      <g clip-path="url(#c)">
        <path fill="#fb1e43"
          d="M90.328125 350.960938c-1.003906-1.457032-1.664063-3.050782-1.980469-4.792969-1.84375-9.105469-4.179687-15.511719-12.40625-34.023438-18.097656-40.742187-29.835937-69.734375-35.210937-86.96875-8.953125-28.742187-12.476563-57.871093-10.136719-83.699219 2.175781-23.964843 11.019531-47.152343 23.066406-60.460937 11.738282-12.964844 28.007813-18.035156 44.441406-13.835937 3.1875.855468 6.292969 1.949218 9.3125 3.285156 3.023438 1.332031 5.925782 2.886718 8.707032 4.664062 2.78125 1.78125 5.410156 3.761719 7.890625 5.945313 2.476562 2.179687 4.773437 4.539062 6.890625 7.074219 12.316406 14.648437 20.992187 36.457031 28.058594 70.539062 3.894531 18.796875 4.316406 20.941406 4.230468 21.433594-.222656 1.285156.9375.789062 4.023438-1.699219 10.464844-8.4375 26.910156-17.433594 42.90625-23.460937 19.460937-7.335938 37.011718-10.15625 54.828125-8.8125 14.472656 1.089843 22.035156 3.378906 31.738281 9.609374 7.007812 4.5 10.660156 7.949219 14.140625 13.363282 9.976563 15.527344 9.664063 35.988281-.898437 58.929687-10.027344 21.78125-32.78125 43.539063-65.058594 62.21875-19.242188 11.132813-36.703125 19.484375-66.003906 31.5625-7.914063 3.261719-19.566407 8.070313-25.898438 10.679688-15.578125 6.433593-29.832031 13.378906-38.074219 18.558593-7.476562 4.691407-11.222656 5.988282-14.675781 5.074219-3.222656-.855469-8.417969-3.578125-9.886719-5.183593Zm17.886719-19.671876c7.476562-4.820312 25.882812-13.179687 56.457031-25.640624 30.410156-12.390626 46.703125-19.921876 64.132813-29.644532 38.921874-21.710937 60.226562-43.417968 67.097656-68.375 1.957031-7.109375 2.316406-13.238281 1.109375-18.921875-1.667969-7.847656-4.835938-12.117187-12.207031-16.476562-5.265626-3.109375-10.871094-4.796875-18.847657-5.6875-18.71875-2.085938-40.507812 2.601562-62.625 13.460937-13.171875 6.464844-21.257812 11.953125-30.957031 21.011719-6.570312 6.132813-8.257812 7.179687-12.539062 7.765625-5.484376.753906-9.714844-1.421875-11.890626-6.113281-1.394531-4.265625-2.507812-8.605469-3.332031-13.015625l-4-19.328125c-7.710937-37.273438-13.398437-53.445313-23.503906-66.835938C107.890625 91.277344 93.433594 84.21875 82.316406 86.5c-9.0625 1.867188-16.78125 9.640625-22.796875 22.972656-13.007812 28.832032-12.386719 69.914063 1.707031 112.953125 4.582032 13.992188 9.316407 25.929688 22.0625 55.625 4.804688 11.203125 9.964844 23.425781 11.464844 27.160157 3.132813 7.816406 8.476563 22.980468 9.082032 25.816406.105468.769531.363281 1.484375.777343 2.140625 1.304688-.421875 2.507813-1.050781 3.605469-1.878907ZM17.46875 70.574219C13.625 66.710938 6.867188 58.6875 6.046875 57.027344c-1.832031-3.707032.261719-9.464844 4.117187-11.285156 5.332032-2.519532 8.15625-1.199219 17.03125 7.984374 6.871094 7.113282 8.234376 8.984376 8.46875 11.621094.085938.867188.054688 1.730469-.101562 2.589844-.152344.855469-.421875 1.675781-.808594 2.457031-.382812.78125-.867187 1.496094-1.453125 2.140625-.585937.644532-1.25 1.195313-1.992187 1.65625-.742188.457032-1.53125.804688-2.371094 1.039063-.835938.238281-1.691406.351562-2.5625.347656-.871094-.003906-1.726562-.128906-2.5625-.375-.835938-.246094-1.621094-.601563-2.359375-1.066406-1.421875-1.082031-2.75-2.269531-3.988281-3.558594Zm313.507812 162.796875c-.480468-.453125-.902343-.953125-1.273437-1.5-.371094-.546875-.675781-1.128906-.921875-1.742188-.242188-.613281-.414062-1.246094-.519531-1.898437-.105469-.652344-.140625-1.304688-.101563-1.964844.039063-.660156.148438-1.304687.328125-1.941406.179688-.632813.425781-1.242188.742188-1.824219.3125-.582031.683593-1.121094 1.113281-1.621094.433594-.5.914062-.945312 1.441406-1.339844 2.804688-2.101562 5.894532-2.042968 11.609375.222657 3.324219 1.359375 6.558594 2.914062 9.703125 4.65625 4 2.289062 4.734375 2.890625 5.390625 4.4375 3.003907 7.054687-1.707031 13.257812-9.683593 12.742187-3.128907-.195312-15.625-5.964844-17.828126-8.226562ZM54.484375 37.828125c-2.5625-3.226563-5.765625-14.335937-5.773437-20.03125C48.695312 10.210938 53.277344 6.113281 59.933594 7.75c3.984375.980469 5.191406 2.675781 7.007812 9.867188.902344 3.582031 2.289063 8.480468 3.074219 10.882812 1.703125 5.175781 1.375 8.203125-1.167969 10.917969-2.675781 2.851562-7.894531 3.636719-11.097656 1.664062-1.230469-.941406-2.320312-2.027343-3.265625-3.253906Zm281.277344 156.058594c-3.371094-4.355469-1.945313-10.5 3.085937-13.304688 2.820313-1.574219 11.96875-2.753906 18.261719-2.363281 2.613281-.019531 5.007813.691406 7.1875 2.136719 2.5 1.472656 3.363281 2.269531 3.960937 3.664062.308594.648438.542969 1.324219.691407 2.027344.152343.707031.222656 1.417969.203125 2.136719-.015625.71875-.113282 1.425781-.296875 2.125-.183594.695312-.445313 1.359375-.785157 1.992187-2.269531 3.855469-5.410156 4.933594-13.242187 4.542969-2.8125-.132812-5.625-.074219-8.433594.183594-5.304687.660156-8.390625-.25-10.632812-3.144532ZM86.941406 35.742188c-1.652344-2.570313-2.515625-9.191407-2.363281-18.164063.125-7.441406 1.992187-11.183594 6.355469-12.722656.335937-.117188.675781-.21875 1.023437-.292969.351563-.078125.703125-.136719 1.054688-.171875.355469-.035156.710937-.050781 1.066406-.042969.359375.007813.710937.035156 1.066406.085938.351563.050781.703125.121094 1.046875.214844.34375.089843.679688.203124 1.011719.335937.332031.128906.652344.28125.964844.453125s.617187.359375.90625.566406c.289062.207032.566406.433594.828125.671875.265625.242188.511718.496094.746094.765625.230468.273438.445312.554688.644531.851563.199219.296875.378906.601562.539062.921875.164063.316406.304688.644531.425781.976562.125.335938.226563.675782.308594 1.023438.082032.347656.140625.699218.179688 1.054687.039062.351563.058594.707031.054687 1.066407.011719 1.398437.285157 5.867187.601563 9.929687.320312 3.128906.363281 6.265625.136718 9.40625-.105468.546875-.265624 1.078125-.46875 1.597656-.207031.515625-.457031 1.011719-.753906 1.484375-.296875.472656-.632812.914063-1.011718 1.324219-.375.410156-.789063.785156-1.234376 1.121094-.445312.335937-.917968.625-1.414062.875-.5.25-1.015625.453125-1.554688.605469-.535156.15625-1.078124.261718-1.632812.316406-.554688.054687-1.113281.058594-1.667969.011718-.707031-.027343-1.398437-.140624-2.078125-.347656-.675781-.207031-1.316406-.496094-1.917968-.871094-.601563-.375-1.148438-.820312-1.632813-1.335937-.484375-.515625-.898437-1.082031-1.234375-1.707031Zm229.539063 122.375c-1.683594-3.566407-1.574219-5.484376.539062-9.019532 2.078125-3.480468 5.078125-5.871094 18.148438-14.445312 6.636719-4.351563 9.640625-5.449219 12.421875-4.535156.785156.257812 1.78125.550781 2.199218.648437 2.617188.609375 5.667969 6.398437 5.1875 9.835937-.53125 3.765626-3 6.15625-11.835937 11.460938-4.527344 2.71875-9.761719 6.113281-11.632813 7.542969-1.46875 1.183593-3.046874 2.1875-4.738281 3.015625-.488281.117187-.984375.195312-1.488281.234375-.503906.035156-1.003906.03125-1.503906-.011719-.503906-.042969-.996094-.128906-1.484375-.253906-.488281-.125-.964844-.289063-1.425781-.492188-.460938-.199218-.902344-.4375-1.324219-.714844-.421875-.273437-.820313-.578124-1.191407-.917968-.375-.335938-.71875-.703125-1.03125-1.097656-.3125-.394532-.589843-.8125-.835937-1.25Zm0 0" />
      </g>
    </g>
  </g>
  <g clip-path="url(#d)">
    <g clip-path="url(#e)">
      <g clip-path="url(#f)">
        <path fill="#FC5571"
          d="M278.683594 292.601562c1.707031-16.652343-10.664063-31.398437-27.382813-32.03125-8.574219-.324218-16.621093 2.933594-22.640625 8.414063 6.019532-5.480469 10.015625-13.1875 10.492188-21.757813.933594-16.703124-12.589844-30.394531-29.328125-30.257812-37.972657.316406-52.136719 50.007812-38.179688 97.175781.996094 3.363281 3.46875 6.074219 6.722657 7.382813 45.65625 18.308594 96.453124 8.851562 100.316406-28.925782Zm0 0" />
      </g>
    </g>
  </g>
  <g clip-path="url(#g)">
    <g clip-path="url(#h)">
      <g clip-path="url(#i)">
        <path fill="#fee1e6"
          d="M217.097656 321.101562c.488282-8.828124-6.402344-16.296874-15.234375-16.21875-4.53125.042969-8.695312 1.957032-11.734375 4.996094 3.039063-3.039062 4.957032-7.199218 4.996094-11.730468.082031-8.835938-7.390625-15.722657-16.214844-15.234376-20.019531 1.105469-26.265625 27.660157-17.734375 52.195313.605469 1.746094 1.976563 3.117187 3.726563 3.726563 24.535156 8.527343 51.089844 2.285156 52.195312-17.734376Zm0 0" />
      </g>
    </g>
  </g>
</svg>