<svg xmlns="http://www.w3.org/2000/svg" width="184" height="174" version="1.0" viewBox="0 0 138 130.499996">
  <defs>
    <clipPath id="a">
      <path d="M30 12h98v95H30Zm0 0" />
    </clipPath>
    <clipPath id="b">
      <path d="m45.394531.222656 91.921875 55.90625-45.035156 74.046875L.359375 74.269531Zm0 0" />
    </clipPath>
    <clipPath id="c">
      <path d="m45.394531.222656 91.921875 55.90625-45.035156 74.046875L.359375 74.269531Zm0 0" />
    </clipPath>
    <clipPath id="d">
      <path d="M76 71h34v34H76Zm0 0" />
    </clipPath>
    <clipPath id="e">
      <path d="m87.144531 62.804688 30.683594 33.703124-23.757813 21.628907-30.683593-33.703125Zm0 0" />
    </clipPath>
    <clipPath id="f">
      <path d="m87.144531 62.804688 30.683594 33.703124-23.757813 21.628907-30.683593-33.703125Zm0 0" />
    </clipPath>
    <clipPath id="g">
      <path d="M66 83h26v29H66Zm0 0" />
    </clipPath>
    <clipPath id="h">
      <path d="m84.730469 78.207031 10.84375 33.398438L72.125 119.21875 61.28125 85.820312Zm0 0" />
    </clipPath>
    <clipPath id="i">
      <path d="m84.730469 78.207031 10.84375 33.398438L72.125 119.21875 61.28125 85.820312Zm0 0" />
    </clipPath>
  </defs>
  <g clip-path="url(#a)">
    <g clip-path="url(#b)">
      <g clip-path="url(#c)">
        <path fill="#ffa8d1"
          d="M52.363281 105.265625c-.261719-.394531-.433593-.824219-.511719-1.289063-.457031-2.441406-1.058593-4.160156-3.183593-9.140624-4.683594-10.957032-7.710938-18.75-9.082031-23.378907-2.285157-7.714843-3.117188-15.511719-2.394532-22.40625.671875-6.398437 3.125-12.5625 6.394532-16.074219 3.1875-3.421874 7.554687-4.714843 11.929687-3.527343 1.710937.484375 3.304687 1.214843 4.785156 2.191406 1.484375.976563 2.785157 2.15625 3.902344 3.535156C67.441406 39.136719 69.675781 45 71.433594 54.136719c.972656 5.039062 1.078125 5.613281 1.050781 5.742187-.0625.34375.25.214844 1.082031-.4375 2.828125-2.214844 7.257813-4.558594 11.558594-6.109375 5.226562-1.886719 9.929688-2.574219 14.683594-2.144531 3.867187.34375 5.878906.984375 8.449218 2.6875 1.855469 1.230469 2.816407 2.164062 3.726563 3.625 2.609375 4.1875 2.449219 9.65625-.460937 15.746094-2.765626 5.785156-8.929688 11.511718-17.625 16.382812-5.183594 2.902344-9.882813 5.070313-17.761719 8.183594-2.128907.84375-5.257813 2.085938-6.960938 2.757812-4.1875 1.660157-8.023437 3.464844-10.246093 4.816407-2.015626 1.226562-3.023438 1.558593-3.941407 1.300781-.859375-.242188-2.238281-.988281-2.625-1.421875Zm4.855469-5.191406c2.015625-1.257813 6.96875-3.425781 15.1875-6.636719 8.175781-3.199219 12.558594-5.148438 17.25-7.683594 10.488281-5.652344 16.261719-11.375 18.195312-18.019531.550782-1.890625.667969-3.527344.367188-5.050781-.417969-2.105469-1.246094-3.257813-3.199219-4.449219-1.398437-.851563-2.886719-1.324219-5.015625-1.59375-4.996094-.628906-10.835937.542969-16.789062 3.359375-3.546875 1.679688-5.726563 3.117188-8.355469 5.5-1.777344 1.613281-2.234375 1.886719-3.378906 2.027344-1.46875.179687-2.59375-.417969-3.15625-1.679688-.355469-1.144531-.636719-2.308594-.839844-3.492187l-.996094-5.179688c-1.917969-9.992187-3.378906-14.335937-6.027343-17.953125-2.417969-3.296875-6.257813-5.238281-9.234376-4.671875-2.429687.464844-4.523437 2.515625-6.179687 6.054688-3.585937 7.65625-3.578125 18.636719.027344 30.195312 1.171875 3.757813 2.390625 6.964844 5.683593 14.949219C52 88.761719 53.332031 92.050781 53.71875 93.054688c.808594 2.097656 2.179688 6.171874 2.332031 6.933593.023438.207031.089844.398438.199219.574219.351562-.109375.671875-.269531.96875-.488281ZM33.953125 30.050781c-1.011719-1.046875-2.789063-3.21875-3-3.664062-.476563-1 .105469-2.53125 1.140625-3 1.4375-.65625 2.1875-.292969 4.523438 2.195312 1.808593 1.929688 2.167968 2.433594 2.21875 3.140625.042968.472656-.046876.921875-.261719 1.34375-.214844.425782-.527344.757813-.933594 1.003906-.410156.242188-.851563.359376-1.324219.351563-.476562-.011719-.914062-.144531-1.3125-.40625-.375-.292969-.726562-.617187-1.050781-.964844ZM117.128906 74.75c-.257812-.25-.449218-.542969-.574218-.875-.128907-.335938-.179688-.679688-.152344-1.035156.023437-.355469.125-.691406.296875-1.003906.175781-.3125.40625-.570313.695312-.78125.757813-.550782 1.585938-.523438 3.101563.101562.886718.378906 1.742187.804688 2.578125 1.285156 1.058593.625 1.253906.789063 1.421875 1.203125.777344 1.898438-.503906 3.539063-2.636719 3.371094-.835937-.066406-4.152344-1.65625-4.730469-2.265625Zm-73.15625-53.3125c-.675781-.871094-1.488281-3.851562-1.46875-5.375.023438-2.027344 1.265625-3.105469 3.039063-2.644531 1.058593.277343 1.375.738281 1.832031 2.664062.230469.960938.582031 2.277344.78125 2.921875.4375 1.390625.335938 2.199219-.351562 2.914063-.726563.75-2.125.941406-2.972657.402343-.328125-.257812-.613281-.550781-.859375-.882812Zm74.582032 42.777344c-.882813-1.179688-.480469-2.816406.875-3.546875.761718-.410157 3.210937-.691407 4.890624-.558594.699219.003906 1.335938.203125 1.914063.59375.660156.40625.890625.621094 1.042969.996094.164062.355469.238281.726562.226562 1.117187-.015625.390625-.117187.753906-.308594 1.097656-.621093 1.019532-1.464843 1.296876-3.554687 1.164063-.753906-.046875-1.503906-.042969-2.253906.015625-1.421875.15625-2.242188-.097656-2.832031-.882812ZM52.652344 21.003906c-.429688-.695312-.636719-2.464844-.5625-4.863281.0625-1.988281.574218-2.984375 1.746094-3.378906.183593-.058594.367187-.097657.558593-.113281.191407-.015626.378907-.011719.570313.019531.1875.027343.371094.078125.546875.152343.175781.074219.34375.167969.496093.28125.15625.113282.292969.242188.414063.390626.125.148437.226563.304687.3125.476562.082031.171875.148437.351562.1875.539062.042969.1875.058594.375.054687.566407 0 .375.054688 1.570312.125 2.65625.070313.839843.070313 1.675781 0 2.515625-.0625.292968-.175781.566406-.339843.820312-.164063.25-.367188.464844-.609375.644532-.242188.175781-.507813.304687-.796875.382812-.292969.082031-.585938.105469-.886719.074219-.382812-.019531-.738281-.132813-1.0625-.339844-.324219-.207031-.574219-.480469-.753906-.824219Zm60.886718 33.578125c-.4375-.960937-.402343-1.472656.175782-2.410156.570312-.921875 1.382812-1.550781 4.90625-3.792969 1.789062-1.136718 2.597656-1.417968 3.339844-1.164062.207031.070312.472656.15625.582031.183594.699219.171874 1.492187 1.730468 1.351562 2.648437-.15625 1.003906-.828125 1.632813-3.207031 3.015625-1.222656.710938-2.632812 1.597656-3.140625 1.972656-.394531.3125-.820313.574219-1.277344.789063-.261719.058593-.53125.074219-.800781.046875-.269531-.027344-.527344-.097656-.773438-.210938-.246093-.109375-.46875-.261718-.667968-.445312-.195313-.183594-.359375-.394532-.488282-.636719Zm0 0" />
      </g>
    </g>
  </g>
  <g clip-path="url(#d)">
    <g clip-path="url(#e)">
      <g clip-path="url(#f)">
        <path fill="#ff429a"
          d="M109.757812 93.5c.503907-4.949219-3.171874-9.328125-8.136718-9.515625-2.550782-.097656-4.941406.871094-6.730469 2.5 1.789063-1.628906 2.976563-3.917969 3.121094-6.464844.277343-4.964843-3.742188-9.035156-8.71875-8.992187-11.28125.09375-15.492188 14.859375-11.34375 28.875.296875 1 1.03125 1.804687 2 2.195312 13.566406 5.4375 28.660156 2.628906 29.808593-8.597656Zm0 0" />
      </g>
    </g>
  </g>
  <g clip-path="url(#g)">
    <g clip-path="url(#h)">
      <g clip-path="url(#i)">
        <path fill="#ffd6e9"
          d="M90.863281 106.929688c1.925781-3.3125.734375-7.554688-2.691406-9.261719-1.757813-.878907-3.742187-.957031-5.515625-.382813 1.773438-.574218 3.332031-1.804687 4.238281-3.546875 1.773438-3.394531.242188-7.527343-3.261719-9.078125-7.949218-3.515625-15.59375 5.511719-17.128906 16.667969-.109375.796875.148438 1.59375.707032 2.175781 7.796874 8.125 19.28125 10.941406 23.652343 3.425782Zm0 0" />
      </g>
    </g>
  </g>
</svg>