<svg xmlns="http://www.w3.org/2000/svg" width="112" height="67" version="1.0" viewBox="0 0 84 50.249999">
  <path fill="#ff429a"
    d="M7.677439 10.264038c-.742188 0-1.339844-.078125-1.796875-.234375-.460937-.164062-.765625-.375-.921875-.625-.074219-.101562-.140625-.253906-.203125-.453125-.054687-.207031-.03125-.429687.0625-.671875.207031.15625.429687.277344.671875.359375.238281.074219.457031.125.65625.15625.25.042969.488281.0625.71875.0625.4375 0 .859375-.035156 1.265625-.109375.414063-.070312.828125-.171875 1.234375-.296875.175781-.875.347656-1.65625.515625-2.34375.164063-.695313.359375-1.265625.578125-1.703125.226562-.476562.46875-.910156.71875-1.296875.257812-.382813.546875-.707031.859375-.96875.3125-.269531.65625-.476563 1.03125-.625.375-.144531.8125-.21875 1.3125-.21875.363281 0 .648437.074219.859375.21875.207031.148437.363281.328125.46875.546875.113281.210938.179688.445312.203125.703125.019531.25.03125.484375.03125.703125 0 .480469-.121094 1.007812-.359375 1.578125-.230469.5625-.554688 1.121094-.96875 1.671875-.417969.542969-.921875 1.0625-1.515625 1.5625-.585937.492188-1.242187.898438-1.96875 1.21875-.242187.960938-.480469 1.90625-.71875 2.84375-.242187.929688-.480469 1.699219-.71875 2.3125-.199219.5625-.453125 1.195312-.765625 1.890625-.3125.699219-.695312 1.363281-1.140625 2 .269531.175781.546875.359375.828125.546875.289062.1875.578125.351562.859375.5.289063.15625.582031.285156.875.390625.300781.101563.617187.15625.953125.15625.351562-.023437.695312-.074219 1.03125-.15625.289062-.074219.59375-.195313.90625-.359375.320312-.167969.617188-.402344.890625-.703125.101563.164063.132813.421875.09375.765625-.03125.351562-.140625.703125-.328125 1.046875-.1875.351563-.460938.660156-.8125.921875-.34375.257812-.777344.390625-1.296875.390625-.554687 0-1.070313-.078125-1.546875-.234375-.480469-.148438-.933594-.328125-1.359375-.546875-.417969-.21875-.8125-.453125-1.1875-.703125-.367187-.25-.703125-.484375-1.015625-.703125-.4375.414063-.917969.753906-1.4375 1.015625-.523438.257812-1.1054688.390625-1.75.390625-.5 0-.898438-.140625-1.203125-.421875-.3125-.28125-.453125-.664062-.421875-1.140625.011719-.179687.0625-.386719.15625-.625.085938-.242187.246094-.46875.484375-.6875.242187-.21875.574219-.40625 1-.5625.417969-.1484375.957031-.21875 1.625-.21875.25 0 .484375.0273438.703125.078125.226562.0507812.453125.113281.671875.1875.15625-.2890625.3125-.625.46875-1 .164063-.375.34375-.800781.53125-1.28125.332031-.914062.617187-1.832031.859375-2.75.25-.925781.460938-1.820312.640625-2.6875-.210937.042969-.429687.074219-.65625.09375-.21875.011719-.445313.015625-.671875.015625Zm-3.609375 9.828125c.1875-.074219.398437-.148438.640625-.21875.25-.074219.535156-.277344.859375-.609375-.21875-.074219-.386719-.109375-.5-.109375-.523437 0-.9023438.070312-1.140625.21875-.238281.15625-.359375.304688-.359375.453125 0 .101563.042969.179687.125.234375.085937.050781.210937.0625.375.03125Zm8.21875-15.140625c-.074219.21875-.167969.539063-.28125.953125-.117187.417969-.242187.902344-.375 1.453125.78125-.5 1.40625-1.078125 1.875-1.734375.476563-.65625.71875-1.304688.71875-1.953125 0-.394531-.117187-.59375-.34375-.59375-.210937 0-.476563.15625-.796875.46875-.3125.3125-.578125.78125-.796875 1.40625ZM19.160102 4.842163c-.042969.15625-.125.3125-.25.46875-.117188.148438-.25.265625-.40625.359375s-.3125.15625-.46875.1875-.289062.007813-.390625-.078125c-.304687-.238281-.464844-.488281-.484375-.75-.011719-.269531.054688-.523438.203125-.765625.144531-.238281.320313-.441406.53125-.609375.21875-.164062.410156-.265625.578125-.296875.15625-.03125.285156 0 .390625.09375.113281.09375.195313.21875.25.375.0625.15625.097656.328125.109375.515625.007812.1875-.011719.355469-.0625.5Zm-3 4.625c.070312-.082031.207031-.148438.40625-.203125.207031-.0625.421875-.109375.640625-.140625.21875-.039062.414063-.0625.59375-.0625.1875-.007812.296875-.007812.328125 0 .007812.011719-.03125.164062-.125.453125-.085938.292969-.195312.636719-.328125 1.03125-.125.386719-.261719.789063-.40625 1.203125-.148437.417969-.257813.757812-.328125 1.015625-.074219.261719-.164062.554687-.265625.875-.09375.324219-.183594.640625-.265625.953125-.074219.3125-.125.609375-.15625.890625-.03125.273437-.011719.480469.0625.625.070312.179687.148438.296875.234375.359375.09375.0625.1875.09375.28125.09375.289063 0 .65625-.15625 1.09375-.46875.445313-.320312.898437-.703125 1.359375-1.140625.457031-.445313.878906-.898437 1.265625-1.359375.394531-.457031.6875-.820312.875-1.09375.113281-.144531.234375-.238281.359375-.28125.125-.039062.222656-.03125.296875.03125.082031.054688.128906.148438.140625.28125.007812.125-.039062.277344-.140625.453125-.230469.40625-.574219.890625-1.03125 1.453125-.449219.554688-.929687 1.089844-1.4375 1.609375-.5.511719-.996094.949219-1.484375 1.3125-.480469.3515625-.875.539063-1.1875.5625-.242188.007813-.480469-.03125-.71875-.125-.242188-.09375-.460938-.2226562-.65625-.390625-.199219-.164062-.367188-.359375-.5-.578125-.125-.226563-.195312-.46875-.203125-.71875-.054687-.363281-.058594-.859375-.015625-1.484375.050781-.632812.132812-1.28125.25-1.9375.113281-.664062.257812-1.296875.4375-1.890625.1875-.59375.394531-1.035156.625-1.328125Zm0 0" />
  <path fill="#ff429a"
    d="M29.682486 13.123413c-.4375.648438-.933594 1.273438-1.484375 1.875-.554688.59375-1.136719 1.132812-1.75 1.609375-.617188.46875-1.246094.84375-1.890625 1.125-.648437.289063-1.277344.4375-1.890625.4375-.3125 0-.65625-.078125-1.03125-.234375-.367188-.148438-.703125-.375-1.015625-.6875-.304687-.320312-.546875-.738281-.734375-1.25-.175781-.507812-.226562-1.125-.15625-1.84375.0625-.59375.25-1.21875.5625-1.875.3125-.664062.695312-1.273438 1.15625-1.828125.457031-.550781.972656-1.003906 1.546875-1.359375.570313-.363281 1.144531-.546875 1.71875-.546875.550781 0 .953125.136719 1.203125.40625.25.273437.359375.609375.328125 1.015625-.042969.460938-.171875.875-.390625 1.25-.210938.375-.460938.714844-.75 1.015625-.28125.304687-.589844.578125-.921875.828125-.324219.25-.632813.476562-.921875.671875-.324219.21875-.632812.429687-.921875.625-.28125.199219-.53125.375-.75.53125.007813.367187.070313.671875.1875.921875.113281.242188.257813.4375.4375.59375.175781.15625.375.265625.59375.328125.226563.0625.457031.09375.6875.09375.5 0 1.015625-.15625 1.546875-.46875.539062-.3125 1.066406-.6875 1.578125-1.125.519531-.445313 1-.910156 1.4375-1.390625.445313-.476562.8125-.890625 1.09375-1.234375.101563-.113281.207031-.179687.3125-.203125.113281-.019531.203125-.003906.265625.046875.070312.042969.109375.125.109375.25s-.054687.265625-.15625.421875Zm-5.578125-3.34375c-.167969 0-.371094.089844-.609375.265625-.242187.167969-.480469.417969-.71875.75-.230469.324219-.449219.71875-.65625 1.1875-.199219.46875-.351563 1.011719-.453125 1.625.175781-.132813.363281-.269531.5625-.40625.207031-.132813.414062-.28125.625-.4375.613281-.476563 1.046875-.898437 1.296875-1.265625.25-.363281.390625-.675781.421875-.9375.019531-.269531-.011719-.46875-.09375-.59375-.085938-.125-.210938-.1875-.375-.1875Zm0 0" />
  <path fill="#ff429a"
    d="M32.427039 5.185913c-.21875.875-.464844 1.710938-.734375 2.5-.273438.78125-.546875 1.523438-.828125 2.21875-.28125.6875-.5625 1.3125-.84375 1.875s-.53125 1.058594-.75 1.484375c-.148437 1.042969-.148437 1.886719 0 2.53125.144531.636719.425781.953125.84375.953125.351563 0 .695313-.160156 1.03125-.484375.332031-.320313.628906-.710937.890625-1.171875.257812-.46875.476562-.96875.65625-1.5.1875-.53125.300781-1.003906.34375-1.421875-.28125-.070313-.515625-.195313-.703125-.375-.1875-.1875-.28125-.429687-.28125-.734375 0-.195312.054687-.382812.171875-.5625.125-.1875.265625-.34375.421875-.46875.15625-.132812.328125-.238281.515625-.3125.1875-.070312.363281-.109375.53125-.109375.238281 0 .445312.15625.625.46875.175781.3125.289062.710937.34375 1.1875.582031-.019531 1.191406-.109375 1.828125-.265625.644531-.15625 1.25-.359375 1.8125-.609375.15625-.070313.285156-.09375.390625-.0625.101562.023437.171875.078125.203125.171875.039063.085938.035156.183594-.015625.296875-.042969.105469-.125.1875-.25.25-.335938.1875-.679688.359375-1.03125.515625-.355469.148438-.710938.273438-1.0625.375-.34375.09375-.679688.171875-1 .234375-.324219.0625-.617188.09375-.875.09375-.054688.574219-.234375 1.199219-.546875 1.875-.304687.679687-.671875 1.304687-1.109375 1.875-.429688.574219-.90625 1.046875-1.4375 1.421875s-1.054688.5625-1.5625.5625c-.15625 0-.367188-.023438-.625-.0625-.261719-.042969-.515625-.1953125-.765625-.453125-.242187-.257813-.449219-.675781-.625-1.25-.179687-.570313-.25-1.390625-.21875-2.453125.007813-.707031.085937-1.457031.234375-2.25.144531-.800781.316406-1.597656.515625-2.390625.207031-.800781.4375-1.578125.6875-2.328125.257813-.75.503906-1.425781.734375-2.03125.226562-.601562.441406-1.101562.640625-1.5.195313-.40625.347656-.671875.453125-.796875.125-.15625.273438-.269531.453125-.34375.175781-.082031.347656-.140625.515625-.171875.164062-.039062.320312-.050781.46875-.03125.144531.011719.242188.027344.296875.046875.09375.0625.117187.386719.078125.96875-.03125.574219-.171875 1.320313-.421875 2.234375Zm0 0" />
  <path fill="#ff429a"
    d="M45.878721 13.123413c-.4375.648438-.933594 1.273438-1.484375 1.875-.554688.59375-1.136719 1.132812-1.75 1.609375-.617188.46875-1.246094.84375-1.890625 1.125-.648437.289063-1.277344.4375-1.890625.4375-.3125 0-.65625-.078125-1.03125-.234375-.367188-.148438-.703125-.375-1.015625-.6875-.304687-.320312-.546875-.738281-.734375-1.25-.175781-.507812-.226562-1.125-.15625-1.84375.0625-.59375.25-1.21875.5625-1.875.3125-.664062.695312-1.273438 1.15625-1.828125.457031-.550781.972656-1.003906 1.546875-1.359375.570313-.363281 1.144531-.546875 1.71875-.546875.550781 0 .953125.136719 1.203125.40625.25.273437.359375.609375.328125 1.015625-.042969.460938-.171875.875-.390625 1.25-.210938.375-.460938.714844-.75 1.015625-.28125.304687-.589844.578125-.921875.828125-.324219.25-.632813.476562-.921875.671875-.324219.21875-.632812.429687-.921875.625-.28125.199219-.53125.375-.75.53125.007813.367187.070313.671875.1875.921875.113281.242188.257813.4375.4375.59375.175781.15625.375.265625.59375.328125.226563.0625.457031.09375.6875.09375.5 0 1.015625-.15625 1.546875-.46875.539062-.3125 1.066406-.6875 1.578125-1.125.519531-.445313 1-.910156 1.4375-1.390625.445313-.476562.8125-.890625 1.09375-1.234375.101563-.113281.207031-.179687.3125-.203125.113281-.019531.203125-.003906.265625.046875.070312.042969.109375.125.109375.25s-.054687.265625-.15625.421875Zm-5.578125-3.34375c-.167969 0-.371094.089844-.609375.265625-.242187.167969-.480469.417969-.71875.75-.230469.324219-.449219.71875-.65625 1.1875-.199219.46875-.351563 1.011719-.453125 1.625.175781-.132813.363281-.269531.5625-.40625.207031-.132813.414062-.28125.625-.4375.613281-.476563 1.046875-.898437 1.296875-1.265625.25-.363281.390625-.675781.421875-.9375.019531-.269531-.011719-.46875-.09375-.59375-.085938-.125-.210938-.1875-.375-.1875ZM7.833689 44.846754c-.367188-.011719-.6875-.199219-.96875-.5625-.273438-.367188-.511719-.839844-.71875-1.421875-.199219-.574219-.371094-1.230469-.515625-1.96875-.136719-.738281-.246094-1.488281-.328125-2.25-.085938-.769531-.140625-1.507813-.171875-2.21875-.03125-.71875-.046875-1.351563-.046875-1.90625.007812-.875.078125-1.769531.203125-2.6875.125-.925781.257813-1.796875.40625-2.609375.15625-.8125.3125-1.53125.46875-2.15625.15625-.632812.269531-1.082031.34375-1.34375.09375-.414062.226563-.703125.40625-.859375.175781-.15625.503906-.242187.984375-.265625h.515625c.144531.011719.289063.027344.4375.046875.144531.011719.273437.042969.390625.09375-.523438 1.054687-.945312 2.117187-1.265625 3.1875-.3125 1.074219-.558594 2.148437-.734375 3.21875-.179688 1.074219-.289062 2.132813-.328125 3.171875-.042969 1.03125-.046875 2.03125-.015625 3 .019531.773438.0625 1.492188.125 2.15625.0625.65625.15625 1.320312.28125 2 .132812.664062.285156 1.050781.453125 1.15625.175781.101562.359375.035156.546875-.203125.1875-.242187.367188-.589844.546875-1.046875.1875-.460938.347656-.914062.484375-1.375.082031-.3125.207031-.753906.375-1.328125.175781-.570313.375-1.203125.59375-1.890625.21875-.695312.445312-1.421875.6875-2.171875.238281-.757813.457031-1.460937.65625-2.109375.207031-.644531.382812-1.207031.53125-1.6875.15625-.476562.265625-.796875.328125-.953125.082031-.238281.203125-.5625.359375-.96875.15625-.414063.320312-.851563.5-1.3125.175781-.457031.363281-.910156.5625-1.359375.195312-.457031.382812-.863281.5625-1.21875.164062-.332031.359375-.523438.578125-.578125.21875-.0625.429687-.03125.640625.09375.21875.125.414062.3125.59375.5625.175781.242187.332031.492187.46875.75-.1875.074219-.382812.25-.578125.53125-.199219.28125-.375.585937-.53125.90625-.1875.375-.371094.78125-.546875 1.21875-.117188.324219-.265625.746094-.453125 1.265625-.1875.523438-.390625 1.09375-.609375 1.71875-.210938.625-.429688 1.273438-.65625 1.9375-.21875.667969-.433594 1.296875-.640625 1.890625-.199219.59375-.382813 1.125-.546875 1.59375-.167969.46875-.304688.824219-.40625 1.0625-.148438.34375-.3125.746094-.5 1.203125-.1875.460938-.386719.929688-.59375 1.40625-.210938.476562-.421875.953125-.640625 1.421875s-.4375.894531-.65625 1.28125c-.304687.539063-.558594.9375-.765625 1.1875-.210938.257813-.480469.390625-.8125.390625ZM24.499262 36.096754c-.4375.648438-.933594 1.273438-1.484375 1.875-.554688.59375-1.136719 1.132812-1.75 1.609375-.617188.46875-1.246094.84375-1.890625 1.125-.648437.289063-1.277344.4375-1.890625.4375-.3125 0-.65625-.078125-1.03125-.234375-.367188-.148438-.703125-.375-1.015625-.6875-.304687-.320312-.546875-.738281-.734375-1.25-.175781-.507812-.226562-1.125-.15625-1.84375.0625-.59375.25-1.21875.5625-1.875.3125-.664062.695312-1.273438 1.15625-1.828125.457031-.550781.972656-1.003906 1.546875-1.359375.570313-.363281 1.144531-.546875 1.71875-.546875.550781 0 .953125.136719 1.203125.40625.25.273437.359375.609375.328125 1.015625-.042969.460938-.171875.875-.390625 1.25-.210938.375-.460938.714844-.75 1.015625-.28125.304687-.589844.578125-.921875.828125-.324219.25-.632813.476562-.921875.671875-.324219.21875-.632812.429687-.921875.625-.28125.199219-.53125.375-.75.53125.007813.367187.070313.671875.1875.921875.113281.242188.257813.4375.4375.59375.175781.15625.375.265625.59375.328125.226563.0625.457031.09375.6875.09375.5 0 1.015625-.15625 1.546875-.46875.539062-.3125 1.066406-.6875 1.578125-1.125.519531-.445313 1-.910156 1.4375-1.390625.445313-.476562.8125-.890625 1.09375-1.234375.101563-.113281.207031-.179687.3125-.203125.113281-.019531.203125-.003906.265625.046875.070312.042969.109375.125.109375.25s-.054687.265625-.15625.421875Zm-5.578125-3.34375c-.167969 0-.371094.089844-.609375.265625-.242187.167969-.480469.417969-.71875.75-.230469.324219-.449219.71875-.65625 1.1875-.199219.46875-.351563 1.011719-.453125 1.625.175781-.132813.363281-.269531.5625-.40625.207031-.132813.414062-.28125.625-.4375.613281-.476563 1.046875-.898437 1.296875-1.265625.25-.363281.390625-.675781.421875-.9375.019531-.269531-.011719-.46875-.09375-.59375-.085938-.125-.210938-.1875-.375-.1875Zm0 0" />
  <path fill="#ff429a"
    d="M21.431315 40.518629c-.101563.15625-.210937.257813-.328125.3125-.125.050781-.234375.054687-.328125.015625-.09375-.03125-.15625-.105469-.1875-.21875s-.003906-.257812.078125-.4375c.054688-.082031.15625-.273438.3125-.578125.148438-.3125.324219-.679687.53125-1.109375.210938-.425781.4375-.890625.6875-1.390625.238281-.5.472656-.972656.703125-1.421875.226563-.445312.4375-.847656.625-1.203125.1875-.363281.320313-.625.40625-.78125-.15625-.144531-.265625-.25-.328125-.3125-.054688-.0625-.09375-.203125-.125-.421875-.03125-.1875.007812-.429688.125-.734375.113281-.3125.265625-.609375.453125-.890625.195313-.28125.410156-.519531.640625-.71875.226562-.207031.453125-.3125.671875-.3125.40625 0 .691406.132812.859375.390625.164062.261719.265625.53125.296875.8125.03125.1875.015625.429687-.046875.71875-.054688.28125-.164062.542969-.328125.78125.039063.023437.097656.054687.171875.09375.070312.03125.191406.046875.359375.046875.226563 0 .390625-.007812.484375-.03125.09375-.03125.242188-.046875.453125-.046875.238281 0 .4375.0625.59375.1875.164063.117187.296875.265625.390625.453125.101562.179688.179688.375.234375.59375.050781.210938.085937.398438.109375.5625.039062.367188-.058594.746094-.296875 1.140625-.230469.386719-.511719.8125-.84375 1.28125-.199219.292969-.402344.621094-.609375.984375-.199219.355469-.289062.679688-.265625.96875.03125.1875.082031.34375.15625.46875.070313.117188.273437.171875.609375.171875.25 0 .519531-.085937.8125-.265625.300781-.1875.609375-.421875.921875-.703125s.617187-.59375.921875-.9375c.300781-.34375.582031-.675781.84375-1 .257812-.332031.476562-.628906.65625-.890625.1875-.257812.328125-.445312.421875-.5625.070313-.113281.164063-.191406.28125-.234375.113281-.039063.210937-.039063.296875 0 .09375.042969.148438.132813.171875.265625.019531.125-.039063.296875-.171875.515625-.085938.148437-.234375.382813-.453125.703125-.210937.3125-.464844.667969-.765625 1.0625-.292969.386719-.621094.789062-.984375 1.203125-.355469.417969-.734375.796875-1.140625 1.140625-.398438.335938-.792969.609375-1.1875.828125-.398438.21875-.777344.328125-1.140625.328125-.375 0-.6875-.074219-.9375-.21875-.25-.148438-.453125-.324219-.609375-.53125-.148438-.207031-.257812-.4375-.328125-.6875-.0625-.257812-.085937-.5-.0625-.71875.007813-.175781.050781-.359375.125-.546875.082031-.195313.175781-.398437.28125-.609375.113281-.21875.234375-.429688.359375-.640625.125-.207031.238281-.410156.34375-.609375.238281-.425781.4375-.785156.59375-1.078125.15625-.300781.234375-.550781.234375-.75 0-.132813-.03125-.25-.09375-.34375-.054687-.101563-.148437-.15625-.28125-.15625-.085937 0-.148437.007813-.1875.015625h-.109375c-.03125 0-.085938.007812-.15625.015625h-.28125c-.1875 0-.351562-.023437-.484375-.078125-.125-.0625-.25-.109375-.375-.140625-.054687.105469-.183594.324219-.390625.65625-.199219.335937-.433594.730469-.703125 1.1875-.273437.449219-.558594.917969-.859375 1.40625-.292969.492187-.570312.949219-.828125 1.375-.2578125.429687-.476563.792969-.65625 1.09375-.1875.292969-.300781.46875-.34375.53125Zm0 0" />
  <path fill="#ff429a"
    d="M35.62472 28.159254c-.21875.875-.464844 1.710938-.734375 2.5-.273438.78125-.546875 1.523438-.828125 2.21875-.28125.6875-.5625 1.3125-.84375 1.875s-.53125 1.058594-.75 1.484375c-.148437 1.042969-.148437 1.886719 0 2.53125.144531.636719.425781.953125.84375.953125.351563 0 .695313-.160156 1.03125-.484375.332031-.320313.628906-.710937.890625-1.171875.257812-.46875.476562-.96875.65625-1.5.1875-.53125.300781-1.003906.34375-1.421875-.28125-.070313-.515625-.195313-.703125-.375-.1875-.1875-.28125-.429687-.28125-.734375 0-.195312.054687-.382812.171875-.5625.125-.1875.265625-.34375.421875-.46875.15625-.132812.328125-.238281.515625-.3125.1875-.070312.363281-.109375.53125-.109375.238281 0 .445312.15625.625.46875.175781.3125.289062.710937.34375 1.1875.582031-.019531 1.191406-.109375 1.828125-.265625.644531-.15625 1.25-.359375 1.8125-.609375.15625-.070313.285156-.09375.390625-.0625.101562.023437.171875.078125.203125.171875.039063.085938.035156.183594-.015625.296875-.042969.105469-.125.1875-.25.25-.335938.1875-.679688.359375-1.03125.515625-.355469.148438-.710938.273438-1.0625.375-.34375.09375-.679688.171875-1 .234375-.324219.0625-.617188.09375-.875.09375-.054688.574219-.234375 1.199219-.546875 1.875-.304687.679687-.671875 1.304687-1.109375 1.875-.429688.574219-.90625 1.046875-1.4375 1.421875s-1.054688.5625-1.5625.5625c-.15625 0-.367188-.023438-.625-.0625-.261719-.042969-.515625-.1953125-.765625-.453125-.242187-.257813-.449219-.675781-.625-1.25-.179687-.570313-.25-1.390625-.21875-2.453125.007813-.707031.085937-1.457031.234375-2.25.144531-.800781.316406-1.597656.515625-2.390625.207031-.800781.4375-1.578125.6875-2.328125.257813-.75.503906-1.425781.734375-2.03125.226562-.601562.441406-1.101562.640625-1.5.195313-.40625.347656-.671875.453125-.796875.125-.15625.273438-.269531.453125-.34375.175781-.082031.347656-.140625.515625-.171875.164062-.039062.320312-.050781.46875-.03125.144531.011719.242188.027344.296875.046875.09375.0625.117187.386719.078125.96875-.03125.574219-.171875 1.320313-.421875 2.234375Zm0 0" />
  <path fill="#ff429a"
    d="M43.998277 27.815504c-.042969.15625-.125.3125-.25.46875-.117188.148438-.25.265625-.40625.359375s-.3125.15625-.46875.1875-.289062.007813-.390625-.078125c-.304687-.238281-.464844-.488281-.484375-.75-.011719-.269531.054688-.523438.203125-.765625.144531-.238281.320313-.441406.53125-.609375.21875-.164062.410156-.265625.578125-.296875.15625-.03125.285156 0 .390625.09375.113281.09375.195313.21875.25.375.0625.15625.097656.328125.109375.515625.007812.1875-.011719.355469-.0625.5Zm-3 4.625c.070312-.082031.207031-.148438.40625-.203125.207031-.0625.421875-.109375.640625-.140625.21875-.039062.414063-.0625.59375-.0625.1875-.007812.296875-.007812.328125 0 .007812.011719-.03125.164062-.125.453125-.085938.292969-.195312.636719-.328125 1.03125-.125.386719-.261719.789063-.40625 1.203125-.148437.417969-.257813.757812-.328125 1.015625-.074219.261719-.164062.554687-.265625.875-.09375.324219-.183594.640625-.265625.953125-.074219.3125-.125.609375-.15625.890625-.03125.273437-.011719.480469.0625.625.070312.179687.148438.296875.234375.359375.09375.0625.1875.09375.28125.09375.289063 0 .65625-.15625 1.09375-.46875.445313-.320312.898437-.703125 1.359375-1.140625.457031-.445313.878906-.898437 1.265625-1.359375.394531-.457031.6875-.820312.875-1.09375.113281-.144531.234375-.238281.359375-.28125.125-.039062.222656-.03125.296875.03125.082031.054688.128906.148438.140625.28125.007812.125-.039062.277344-.140625.453125-.230469.40625-.574219.890625-1.03125 1.453125-.449219.554688-.929687 1.089844-1.4375 1.609375-.5.511719-.996094.949219-1.484375 1.3125-.480469.3515625-.875.539063-1.1875.5625-.242188.007813-.480469-.03125-.71875-.125-.242188-.09375-.460938-.2226562-.65625-.390625-.199219-.164062-.367188-.359375-.5-.578125-.125-.226563-.195312-.46875-.203125-.71875-.054687-.363281-.058594-.859375-.015625-1.484375.050781-.632812.132812-1.28125.25-1.9375.113281-.664062.257812-1.296875.4375-1.890625.1875-.59375.394531-1.035156.625-1.328125Zm0 0" />
  <path fill="#ff429a"
    d="M51.130037 41.174879c-.335938 0-.621094-.0625-.859375-.1875-.242187-.125-.433594-.2890625-.578125-.484375-.148438-.207031-.246094-.441406-.296875-.703125-.042969-.269531-.027344-.5625.046875-.875.050781-.195313.125-.46875.21875-.8125.101562-.34375.207031-.710937.3125-1.109375.113281-.394531.21875-.789062.3125-1.1875.09375-.40625.15625-.769531.1875-1.09375.03125-.320312.015625-.585938-.046875-.796875-.0625-.21875-.1875-.328125-.375-.328125-.230469 0-.46875.078125-.71875.234375-.242187.148437-.492187.355469-.75.625-.25.261719-.507813.5625-.765625.90625-.25.335937-.496094.683594-.734375 1.046875-.136719.492188-.25.921875-.34375 1.296875-.085937.367187-.15625.699219-.21875 1-.0625.292969-.125.554687-.1875.78125-.054687.21875-.105469.433594-.15625.640625-.042969.148438-.171875.289062-.390625.421875-.210938.1328125-.4375.242187-.6875.328125-.25.09375-.4609375.140625-.640625.140625-.1875 0-.265625-.0625-.234375-.1875.023438-.09375.074219-.2890625.15625-.59375.074219-.300781.167969-.660156.28125-1.078125.101562-.414062.210938-.851562.328125-1.3125.113281-.46875.222656-.910156.328125-1.328125.070312-.332031.148438-.703125.234375-1.109375.070313-.351562.160156-.757812.265625-1.21875.113281-.46875.242188-.976562.390625-1.53125.101563-.082031.207031-.148438.3125-.203125.113281-.050781.226563-.09375.34375-.125.113281-.039063.234375-.066406.359375-.078125.113281 0 .234375.007812.359375.015625.09375.023437.191406.054687.296875.09375.113281.03125.21875.085937.3125.15625-.054688.09375-.109375.234375-.171875.421875-.054687.179688-.105469.371094-.15625.578125-.0625.230469-.136719.46875-.21875.71875.1875-.257813.398437-.523437.640625-.796875.238281-.269531.5-.515625.78125-.734375s.578125-.394531.890625-.53125c.320313-.132813.648437-.203125.984375-.203125.28125 0 .53125.078125.75.234375s.382812.382813.5.671875c.125.28125.195312.621094.21875 1.015625.03125.386719-.023438.808594-.15625 1.265625l-.234375.96875c-.074219.304688-.167969.664062-.28125 1.078125-.105469.40625-.234375.859375-.390625 1.359375-.09375.3125-.132812.589844-.109375.828125.019531.230469.160156.34375.421875.34375.257812 0 .585938-.15625.984375-.46875.40625-.320313.8125-.707031 1.21875-1.15625.40625-.457031.789063-.921875 1.15625-1.390625.363281-.46875.640625-.847656.828125-1.140625.125-.1875.242188-.304687.359375-.359375.125-.0625.21875-.070312.28125-.03125.0625.042969.09375.140625.09375.296875 0 .148437-.058594.339844-.171875.578125-.105469.199219-.261719.464844-.46875.796875-.210938.335937-.460938.695313-.75 1.078125-.292969.375-.605469.757812-.9375 1.140625-.335938.375-.683594.71875-1.046875 1.03125-.367187.3125-.726563.5664062-1.078125.765625-.355469.195312-.6875.296875-1 .296875Zm0 0" />
  <path fill="#ff429a"
    d="M61.203984 36.471754c-.074219.449219-.148437.875-.21875 1.28125-.0625.40625-.101563.734375-.109375.984375-.011719.367187.050781.625.1875.78125.144531.15625.304688.234375.484375.234375.207031 0 .457031-.097656.75-.296875.300781-.207031.617187-.460937.953125-.765625.332031-.300781.664062-.632812 1-1 .332031-.363281.640625-.707031.921875-1.03125.28125-.320312.519531-.609375.71875-.859375.195313-.25.332031-.410156.40625-.484375.082031-.082031.171875-.128906.265625-.140625.09375-.019531.164062-.007813.21875.03125.0625.042969.09375.125.09375.25 0 .117187-.058594.257813-.171875.421875-.179687.28125-.402344.609375-.671875.984375-.273438.367187-.578125.746094-.921875 1.140625-.335937.386719-.6875.773438-1.0625 1.15625-.367187.375-.734375.710938-1.109375 1-.367188.28125-.71875.5078125-1.0625.6875-.335938.1875-.636719.28125-.90625.28125-.210938 0-.40625-.058594-.59375-.171875-.179688-.117187-.339844-.265625-.484375-.453125-.148437-.1875-.261719-.394531-.34375-.625-.074219-.238281-.105469-.472656-.09375-.703125.019531-.101563.046875-.28125.078125-.53125-.617188.6875-1.230469 1.230469-1.84375 1.625-.617188.3945312-1.210938.59375-1.78125.59375-.199219 0-.417969-.054687-.65625-.15625-.230469-.09375-.433594-.253906-.609375-.484375-.179687-.238281-.3242188-.546875-.4375-.921875-.125-.375-.171875-.832031-.140625-1.375.042969-.832031.2109375-1.625.5-2.375.289062-.757813.65625-1.421875 1.09375-1.984375.445312-.5625.945312-1.003906 1.5-1.328125.5625-.320313 1.125-.484375 1.6875-.484375.25 0 .472656.0625.671875.1875.207031.125.382813.289062.53125.484375.144531.1875.265625.402344.359375.640625.09375.230469.160156.445312.203125.640625.101563-.414063.195313-.828125.28125-1.234375.09375-.40625.179687-.789062.265625-1.15625.144531-.539062.296875-1.117188.453125-1.734375.144531-.539063.3125-1.160156.5-1.859375.1875-.695312.398437-1.425781.640625-2.1875.144531-.125.28125-.210938.40625-.265625.132812-.0625.257812-.109375.375-.140625.125-.039062.25-.0625.375-.0625.132812 0 .257812.023438.375.0625.125.03125.222656.125.296875.28125.082031.15625.140625.386719.171875.6875.03125.304688.03125.714844 0 1.234375-.03125.636719-.148438 1.335937-.34375 2.09375-.199219.75-.460938 1.53125-.78125 2.34375-.3125.804687-.679688 1.605469-1.09375 2.40625-.40625.804687-.851562 1.570313-1.328125 2.296875Zm-1.28125.28125c.050781-.269531.101563-.539062.15625-.8125.050781-.28125.113281-.566406.1875-.859375-.03125.011719-.058594.027344-.078125.046875-.023438.011719-.046875.023438-.078125.03125-.15625.074219-.265625.074219-.328125 0-.054688-.082031-.078125-.210938-.078125-.390625 0-.082031-.011719-.234375-.03125-.453125-.011719-.226562-.054687-.460938-.125-.703125-.0625-.238281-.164063-.445313-.296875-.625-.125-.1875-.304688-.28125-.53125-.28125-.335938 0-.679688.171875-1.03125.515625-.34375.34375-.667969.761719-.96875 1.25-.304688.480469-.558594.996094-.765625 1.546875-.199219.554687-.3125 1.042969-.34375 1.46875-.03125.699219.050781 1.203125.25 1.515625.207031.304688.488281.453125.84375.453125.257813 0 .546875-.097656.859375-.296875.3125-.207031.613281-.457031.90625-.75.300781-.289062.578125-.585938.828125-.890625.25-.300781.457031-.554687.625-.765625Zm0 0" />
  <path fill="#ff429a"
    d="M74.240868 36.096754c-.4375.648438-.933594 1.273438-1.484375 1.875-.554688.59375-1.136719 1.132812-1.75 1.609375-.617188.46875-1.246094.84375-1.890625 1.125-.648437.289063-1.277344.4375-1.890625.4375-.3125 0-.65625-.078125-1.03125-.234375-.367188-.148438-.703125-.375-1.015625-.6875-.304687-.320312-.546875-.738281-.734375-1.25-.175781-.507812-.226562-1.125-.15625-1.84375.0625-.59375.25-1.21875.5625-1.875.3125-.664062.695312-1.273438 1.15625-1.828125.457031-.550781.972656-1.003906 1.546875-1.359375.570313-.363281 1.144531-.546875 1.71875-.546875.550781 0 .953125.136719 1.203125.40625.25.273437.359375.609375.328125 1.015625-.042969.460938-.171875.875-.390625 1.25-.210938.375-.460938.714844-.75 1.015625-.28125.304687-.589844.578125-.921875.828125-.324219.25-.632813.476562-.921875.671875-.324219.21875-.632812.429687-.921875.625-.28125.199219-.53125.375-.75.53125.007813.367187.070313.671875.1875.921875.113281.242188.257813.4375.4375.59375.175781.15625.375.265625.59375.328125.226563.0625.457031.09375.6875.09375.5 0 1.015625-.15625 1.546875-.46875.539062-.3125 1.066406-.6875 1.578125-1.125.519531-.445313 1-.910156 1.4375-1.390625.445313-.476562.8125-.890625 1.09375-1.234375.101563-.113281.207031-.179687.3125-.203125.113281-.019531.203125-.003906.265625.046875.070312.042969.109375.125.109375.25s-.054687.265625-.15625.421875Zm-5.578125-3.34375c-.167969 0-.371094.089844-.609375.265625-.242187.167969-.480469.417969-.71875.75-.230469.324219-.449219.71875-.65625 1.1875-.199219.46875-.351563 1.011719-.453125 1.625.175781-.132813.363281-.269531.5625-.40625.207031-.132813.414062-.28125.625-.4375.613281-.476563 1.046875-.898437 1.296875-1.265625.25-.363281.390625-.675781.421875-.9375.019531-.269531-.011719-.46875-.09375-.59375-.085938-.125-.210938-.1875-.375-.1875Zm0 0" />
  <path fill="#ff429a"
    d="M80.032299 35.128004c.050781-.09375.125-.148438.21875-.171875.101562-.019531.179688-.007813.234375.03125.0625.042969.09375.117187.09375.21875.007813.105469-.027344.246094-.109375.421875-.292969.554688-.679688 1.148438-1.15625 1.78125-.46875.636719-.964844 1.234375-1.484375 1.796875-.523437.554687-1.03125 1.011719-1.53125 1.375-.492187.363281-.902344.546875-1.234375.546875-.480469 0-.882812-.09375-1.203125-.28125-.3125-.1875-.5625-.414062-.75-.6875-.179687-.28125-.304687-.582031-.375-.90625-.074219-.332031-.09375-.632812-.0625-.90625.019531-.238281.070313-.65625.15625-1.25.082031-.601562.195313-1.300781.34375-2.09375.144531-.789062.304687-1.640625.484375-2.546875.1875-.90625.378906-1.78125.578125-2.625-.242187.03125-.484375.0625-.734375.09375s-.476562.046875-.671875.046875c-.46875 0-.90625-.050781-1.3125-.15625-.414063-.113281-.726563-.222656-.9375-.328125-.113281-.0625-.160156-.144531-.140625-.25.011719-.101563.054688-.207031.125-.3125.074219-.113281.167969-.210937.28125-.296875.105469-.082031.199219-.125.28125-.125.28125.03125.578125.058594.890625.078125.320313.023437.671875.027344 1.046875.015625.28125-.007812.546875-.03125.796875-.0625s.5-.066406.75-.109375c.1875-.695313.367187-1.300781.546875-1.8125.1875-.519531.351562-.878906.5-1.078125.039062-.070312.132812-.132812.28125-.1875.15625-.050781.320312-.085938.5-.109375.175781-.019531.34375-.019531.5 0 .15625.023437.269531.074219.34375.15625.070312.117187.101562.414063.09375.890625-.011719.480469-.089844 1.089844-.234375 1.828125.601563 0 1.140625.039063 1.609375.109375.476562.0625.882812.136719 1.21875.21875.332031.074219.597656.152344.796875.234375.207031.074219.359375.125.453125.15625.101562.03125.160156.105469.171875.21875.007813.117187-.011719.234375-.0625.359375-.054687.125-.136719.234375-.25.328125-.117187.085937-.246094.109375-.390625.078125-.148438-.019531-.3125-.050781-.5-.09375-.179688-.039062-.398438-.070312-.65625-.09375-.25-.03125-.554688-.0625-.90625-.09375-.34375-.03125-.746094-.046875-1.203125-.046875-.09375 0-.195313.007813-.296875.015625h-.34375c-.054688.242188-.105469.476562-.15625.703125-.054688.21875-.121094.453125-.203125.703125-.1875.574219-.40625 1.203125-.65625 1.890625-.21875.59375-.480469 1.277344-.78125 2.046875-.304687.761719-.648437 1.578125-1.03125 2.453125-.085937.625-.074219 1.101563.03125 1.421875.113281.324219.25.558594.40625.703125.1875.167969.421875.257813.703125.265625.21875.03125.484375-.039062.796875-.21875.3125-.1875.632813-.429688.96875-.734375.332031-.300781.664063-.632813 1-1 .34375-.363281.660156-.71875.953125-1.0625.289062-.351563.546875-.671875.765625-.953125s.367187-.476562.453125-.59375Zm0 0" />
</svg>